<svg xmlns:xlink="http://www.w3.org/1999/xlink" class="SVGInline-svg discover-sidebar__icon-svg discover-sidebar__icon_friends-svg" xmlns="http://www.w3.org/2000/svg" width="20" height="16" viewBox="0 0 20 16"><path d="M6.067.006c-2.012 0-3.65 1.787-3.65 3.983s1.638 3.983 3.65 3.983c2.013 0 3.651-1.787 3.651-3.983S8.08.006 6.068.006zm8.3.57h-.025c-.845.007-1.634.374-2.222 1.033a3.556 3.556 0 00-.884 2.407c.007.904.335 1.753.923 2.39.592.643 1.377.996 2.213.996h.025c.845-.007 1.634-.374 2.222-1.033a3.556 3.556 0 00.884-2.407C17.488 2.09 16.083.576 14.367.576zm.154 7.479h-.303c-1.412 0-2.7.552-3.673 1.457a7.251 7.251 0 012.206 2.936c.32.78.504 1.6.546 2.446H20v-1.201c0-3.109-2.458-5.638-5.479-5.638zm-2.398 6.839a6.096 6.096 0 00-2.36-4.478A5.749 5.749 0 006.25 9.219h-.365C2.635 9.219 0 11.93 0 15.275v.72h12.135v-.72c0-.128-.004-.255-.012-.381z" fill="#FFFFFF"></path></svg>